<?xml version="1.0" encoding="UTF-8" standalone="no"?>
<!-- Created with Inkscape (http://www.inkscape.org/) -->

<svg
   xmlns:dc="http://purl.org/dc/elements/1.1/"
   xmlns:cc="http://creativecommons.org/ns#"
   xmlns:rdf="http://www.w3.org/1999/02/22-rdf-syntax-ns#"
   xmlns:svg="http://www.w3.org/2000/svg"
   xmlns="http://www.w3.org/2000/svg"
   xmlns:xlink="http://www.w3.org/1999/xlink"
   xmlns:sodipodi="http://sodipodi.sourceforge.net/DTD/sodipodi-0.dtd"
   xmlns:inkscape="http://www.inkscape.org/namespaces/inkscape"
   width="333.48383"
   height="221.39366"
   id="svg2"
   sodipodi:version="0.32"
   inkscape:version="0.48.2 r9819"
   sodipodi:docname="10-kg-weight.svg"
   inkscape:output_extension="org.inkscape.output.svg.inkscape"
   version="1.0">
  <sodipodi:namedview
     id="base"
     pagecolor="#ffffff"
     bordercolor="#666666"
     borderopacity="1.0"
     gridtolerance="10000"
     guidetolerance="10"
     objecttolerance="10"
     inkscape:pageopacity="0.0"
     inkscape:pageshadow="2"
     inkscape:zoom="2.4438966"
     inkscape:cx="116.82163"
     inkscape:cy="110.69684"
     inkscape:document-units="px"
     inkscape:current-layer="layer1"
     showgrid="false"
     inkscape:snap-global="false"
     inkscape:window-width="1272"
     inkscape:window-height="783"
     inkscape:window-x="0"
     inkscape:window-y="0"
     fit-margin-top="0"
     fit-margin-left="0"
     fit-margin-right="0"
     fit-margin-bottom="0"
     inkscape:window-maximized="0" />
  <defs
     id="defs4">
    <linearGradient
       id="linearGradient3366">
      <stop
         style="stop-color:#777777;stop-opacity:1;"
         offset="0"
         id="stop3368" />
      <stop
         style="stop-color:#282828;stop-opacity:1;"
         offset="1"
         id="stop3370" />
    </linearGradient>
    <linearGradient
       id="linearGradient3329">
      <stop
         style="stop-color:#444444;stop-opacity:1;"
         offset="0"
         id="stop3331" />
      <stop
         style="stop-color:#000000;stop-opacity:1;"
         offset="1"
         id="stop3333" />
    </linearGradient>
    <linearGradient
       id="linearGradient3321">
      <stop
         id="stop3323"
         offset="0"
         style="stop-color:#444444;stop-opacity:1;" />
      <stop
         id="stop3325"
         offset="1"
         style="stop-color:#000000;stop-opacity:1;" />
    </linearGradient>
    <linearGradient
       id="linearGradient3311">
      <stop
         id="stop3313"
         offset="0"
         style="stop-color:#ffffff;stop-opacity:0.35672516;" />
      <stop
         id="stop3315"
         offset="1"
         style="stop-color:#ffffff;stop-opacity:0;" />
    </linearGradient>
    <linearGradient
       id="linearGradient3297">
      <stop
         id="stop3299"
         offset="0"
         style="stop-color:#000000;stop-opacity:0;" />
      <stop
         id="stop3301"
         offset="1"
         style="stop-color:#000000;stop-opacity:1;" />
    </linearGradient>
    <linearGradient
       id="linearGradient3287">
      <stop
         style="stop-color:#000000;stop-opacity:0;"
         offset="0"
         id="stop3289" />
      <stop
         id="stop3295"
         offset="0.5"
         style="stop-color:#000000;stop-opacity:0.05490196;" />
      <stop
         style="stop-color:#777777;stop-opacity:0.60233921;"
         offset="1"
         id="stop3291" />
    </linearGradient>
    <linearGradient
       id="linearGradient3269">
      <stop
         id="stop3271"
         offset="0"
         style="stop-color:#ffffff;stop-opacity:1;" />
      <stop
         id="stop3273"
         offset="1"
         style="stop-color:#5f5f5f;stop-opacity:0;" />
    </linearGradient>
    <inkscape:perspective
       id="perspective10"
       inkscape:persp3d-origin="372.04724 : 350.78739 : 1"
       inkscape:vp_z="946.04427 : 498.38984 : 1"
       inkscape:vp_y="6.123234e-14 : 1000 : 0"
       inkscape:vp_x="-53.729759 : 513.21184 : 1"
       sodipodi:type="inkscape:persp3d" />
    <linearGradient
       gradientUnits="userSpaceOnUse"
       y2="610.86237"
       x2="516.95361"
       y1="466.44608"
       x1="436.88541"
       id="linearGradient3327"
       xlink:href="#linearGradient3329"
       inkscape:collect="always" />
    <linearGradient
       gradientUnits="userSpaceOnUse"
       y2="631.35199"
       x2="353.18198"
       y1="493.05499"
       x1="368.38394"
       id="linearGradient3341"
       xlink:href="#linearGradient3329"
       inkscape:collect="always" />
    <radialGradient
       r="9.484375"
       fy="444.92343"
       fx="406.46127"
       cy="444.92343"
       cx="406.46127"
       gradientTransform="matrix(1,0,0,0.9406919,0,26.387551)"
       gradientUnits="userSpaceOnUse"
       id="radialGradient3350"
       xlink:href="#linearGradient3269"
       inkscape:collect="always" />
    <radialGradient
       r="9.484375"
       fy="444.92343"
       fx="406.46127"
       cy="444.92343"
       cx="406.46127"
       spreadMethod="pad"
       gradientTransform="matrix(1,0,0,0.9406919,0,26.387551)"
       gradientUnits="userSpaceOnUse"
       id="radialGradient3352"
       xlink:href="#linearGradient3287"
       inkscape:collect="always" />
    <linearGradient
       y2="447.18417"
       x2="412.44916"
       y1="441.11554"
       x1="408.49771"
       gradientTransform="translate(0.1021883,5.1450614)"
       gradientUnits="userSpaceOnUse"
       id="linearGradient3354"
       xlink:href="#linearGradient3297"
       inkscape:collect="always" />
    <radialGradient
       r="9.484375"
       fy="437.35959"
       fx="387.77313"
       cy="437.35959"
       cx="387.77313"
       gradientTransform="matrix(0.1093718,0.1201607,-0.461819,0.420353,560.06499,207.89996)"
       gradientUnits="userSpaceOnUse"
       id="radialGradient3356"
       xlink:href="#linearGradient3311"
       inkscape:collect="always" />
    <linearGradient
       gradientUnits="userSpaceOnUse"
       y2="493.10587"
       x2="399.05618"
       y1="463.57184"
       x1="391.13251"
       id="linearGradient3364"
       xlink:href="#linearGradient3366"
       inkscape:collect="always" />
    <linearGradient
       gradientUnits="userSpaceOnUse"
       y2="493.87094"
       x2="432.40509"
       y1="482.04025"
       x1="429.60516"
       id="linearGradient3380"
       xlink:href="#linearGradient3297"
       inkscape:collect="always" />
    <linearGradient
       gradientUnits="userSpaceOnUse"
       y2="512.13708"
       x2="446.06134"
       y1="492.55524"
       x1="431.89789"
       id="linearGradient3388"
       xlink:href="#linearGradient3366"
       inkscape:collect="always" />
    <linearGradient
       inkscape:collect="always"
       xlink:href="#linearGradient3366"
       id="linearGradient4173"
       gradientUnits="userSpaceOnUse"
       x1="391.13251"
       y1="463.57184"
       x2="399.05618"
       y2="493.10587" />
    <linearGradient
       inkscape:collect="always"
       xlink:href="#linearGradient3329"
       id="linearGradient4175"
       gradientUnits="userSpaceOnUse"
       x1="368.38394"
       y1="493.05499"
       x2="353.18198"
       y2="631.35199" />
    <linearGradient
       inkscape:collect="always"
       xlink:href="#linearGradient3329"
       id="linearGradient4177"
       gradientUnits="userSpaceOnUse"
       x1="436.88541"
       y1="466.44608"
       x2="516.95361"
       y2="610.86237" />
    <linearGradient
       inkscape:collect="always"
       xlink:href="#linearGradient3366"
       id="linearGradient4179"
       gradientUnits="userSpaceOnUse"
       x1="431.89789"
       y1="492.55524"
       x2="446.06134"
       y2="512.13708" />
    <radialGradient
       inkscape:collect="always"
       xlink:href="#linearGradient3269"
       id="radialGradient4181"
       gradientUnits="userSpaceOnUse"
       gradientTransform="matrix(1,0,0,0.9406919,0,26.387551)"
       cx="406.46127"
       cy="444.92343"
       fx="406.46127"
       fy="444.92343"
       r="9.484375" />
    <radialGradient
       inkscape:collect="always"
       xlink:href="#linearGradient3287"
       id="radialGradient4183"
       gradientUnits="userSpaceOnUse"
       gradientTransform="matrix(1,0,0,0.9406919,0,26.387551)"
       spreadMethod="pad"
       cx="406.46127"
       cy="444.92343"
       fx="406.46127"
       fy="444.92343"
       r="9.484375" />
    <linearGradient
       inkscape:collect="always"
       xlink:href="#linearGradient3297"
       id="linearGradient4185"
       gradientUnits="userSpaceOnUse"
       gradientTransform="translate(0.1021883,5.1450614)"
       x1="408.49771"
       y1="441.11554"
       x2="412.44916"
       y2="447.18417" />
    <radialGradient
       inkscape:collect="always"
       xlink:href="#linearGradient3311"
       id="radialGradient4187"
       gradientUnits="userSpaceOnUse"
       gradientTransform="matrix(0.1093718,0.1201607,-0.461819,0.420353,560.06499,207.89996)"
       cx="387.77313"
       cy="437.35959"
       fx="387.77313"
       fy="437.35959"
       r="9.484375" />
    <linearGradient
       inkscape:collect="always"
       xlink:href="#linearGradient3297"
       id="linearGradient4189"
       gradientUnits="userSpaceOnUse"
       x1="429.60516"
       y1="482.04025"
       x2="432.40509"
       y2="493.87094" />
    <radialGradient
       inkscape:collect="always"
       xlink:href="#linearGradient3311"
       id="radialGradient3312"
       gradientUnits="userSpaceOnUse"
       gradientTransform="matrix(0.4363316,0.38938565,-1.8423965,1.362171,1039.4469,-308.47443)"
       cx="387.77313"
       cy="437.35959"
       fx="387.77313"
       fy="437.35959"
       r="9.484375" />
    <linearGradient
       inkscape:collect="always"
       xlink:href="#linearGradient3297"
       id="linearGradient3315"
       gradientUnits="userSpaceOnUse"
       gradientTransform="matrix(3.9894342,0,0,3.2405408,-1194.4878,-965.50995)"
       x1="408.49771"
       y1="441.11554"
       x2="412.44916"
       y2="447.18417" />
    <radialGradient
       inkscape:collect="always"
       xlink:href="#linearGradient3287"
       id="radialGradient3318"
       gradientUnits="userSpaceOnUse"
       gradientTransform="matrix(3.9894342,0,0,3.0483505,-1194.8955,-896.67279)"
       spreadMethod="pad"
       cx="406.46127"
       cy="444.92343"
       fx="406.46127"
       fy="444.92343"
       r="9.484375" />
    <radialGradient
       inkscape:collect="always"
       xlink:href="#linearGradient3269"
       id="radialGradient3321"
       gradientUnits="userSpaceOnUse"
       gradientTransform="matrix(3.9894342,0,0,3.0483505,-1194.8955,-896.67279)"
       cx="406.46127"
       cy="444.92343"
       fx="406.46127"
       fy="444.92343"
       r="9.484375" />
  </defs>
  <metadata
     id="metadata7">
    <rdf:RDF>
      <cc:Work
         rdf:about="">
        <dc:format>image/svg+xml</dc:format>
        <dc:type
           rdf:resource="http://purl.org/dc/dcmitype/StillImage" />
        <dc:date>2010-02-12</dc:date>
        <dc:creator>
          <cc:Agent>
            <dc:title>Klaas van Gend</dc:title>
          </cc:Agent>
        </dc:creator>
        <dc:rights>
          <cc:Agent>
            <dc:title>Public Domain</dc:title>
          </cc:Agent>
        </dc:rights>
        <cc:license
           rdf:resource="http://creativecommons.org/licenses/publicdomain/" />
      </cc:Work>
      <cc:License
         rdf:about="http://creativecommons.org/licenses/publicdomain/">
        <cc:permits
           rdf:resource="http://creativecommons.org/ns#Reproduction" />
        <cc:permits
           rdf:resource="http://creativecommons.org/ns#Distribution" />
        <cc:permits
           rdf:resource="http://creativecommons.org/ns#DerivativeWorks" />
      </cc:License>
    </rdf:RDF>
  </metadata>
  <g
     id="layer1"
     inkscape:groupmode="layer"
     inkscape:label="Layer 1"
     transform="translate(-269.23247,-430.69811)">
    <g
       id="g3324">
      <path
         inkscape:connector-curvature="0"
         style="fill:url(#linearGradient4173);fill-opacity:1;stroke:#000000;stroke-width:1;stroke-linecap:round;stroke-linejoin:round;stroke-miterlimit:4;stroke-opacity:1"
         d="m 346.66535,482.00897 85.69503,-12.47907 87.85863,12.57492 -92.63826,15.48856 -80.9154,-15.58441 z"
         id="rect2423"
         sodipodi:nodetypes="ccccc" />
      <path
         inkscape:connector-curvature="0"
         style="fill:url(#linearGradient4175);fill-opacity:1;stroke:#000000;stroke-width:1;stroke-linecap:round;stroke-linejoin:round;stroke-miterlimit:4;stroke-opacity:1"
         d="m 346.61114,482.01448 80.16409,15.1129 9.44829,154.4644 -166.49105,-50.64535 76.87867,-118.93195 z"
         id="rect2417"
         sodipodi:nodetypes="ccccc" />
      <path
         inkscape:connector-curvature="0"
         style="fill:url(#linearGradient4177);fill-opacity:1;stroke:url(#linearGradient4179);stroke-width:1;stroke-linecap:round;stroke-linejoin:round;stroke-miterlimit:4;stroke-opacity:1"
         d="M 426.68651,497.59501 520.08097,482.01448 602.2163,606.20309 437.03943,651.59177 426.68651,497.59501 z"
         id="rect2419"
         sodipodi:nodetypes="ccccc" />
      <path
         style="fill:#000000;fill-opacity:1;stroke:none"
         d="m 426.59272,430.69811 c -20.88832,0 -37.775,13.00313 -37.77496,28.96234 0,15.95924 16.8866,28.86103 37.77496,28.86106 20.88831,0 37.89966,-12.90182 37.89962,-28.86106 0,-15.95924 -17.01135,-28.96237 -37.89962,-28.96234 z m 0,11.44316 c 12.62851,0 22.93924,7.87063 22.93924,17.51918 0,9.64858 -10.31069,17.4179 -22.93924,17.4179 -12.6286,-3e-5 -22.81458,-7.76935 -22.81458,-17.4179 4e-5,-9.64852 10.18602,-17.51918 22.81458,-17.51918 z"
         id="path2446"
         inkscape:connector-curvature="0" />
      <path
         style="fill:url(#radialGradient3321);fill-opacity:1;stroke:none"
         d="m 426.59272,430.69811 c -20.88832,0 -37.775,13.00313 -37.77496,28.96234 0,15.95924 16.8866,28.86103 37.77496,28.86106 20.88831,0 37.89966,-12.90182 37.89962,-28.86106 0,-15.95924 -17.01135,-28.96237 -37.89962,-28.96234 z m 0,11.44316 c 12.62851,0 22.93924,7.87063 22.93924,17.51918 0,9.64858 -10.31069,17.4179 -22.93924,17.4179 -12.6286,-3e-5 -22.81458,-7.76935 -22.81458,-17.4179 4e-5,-9.64852 10.18602,-17.51918 22.81458,-17.51918 z"
         id="path2497"
         inkscape:connector-curvature="0" />
      <path
         style="fill:url(#radialGradient3318);fill-opacity:1;stroke:none"
         d="m 426.59272,430.69811 c -20.88832,0 -37.775,13.00313 -37.77496,28.96234 0,15.95924 16.8866,28.86103 37.77496,28.86106 20.88831,0 37.89966,-12.90182 37.89962,-28.86106 0,-15.95924 -17.01135,-28.96237 -37.89962,-28.96234 z m 0,11.44316 c 12.62851,0 22.93924,7.87063 22.93924,17.51918 0,9.64858 -10.31069,17.4179 -22.93924,17.4179 -12.6286,-3e-5 -22.81458,-7.76935 -22.81458,-17.4179 4e-5,-9.64852 10.18602,-17.51918 22.81458,-17.51918 z"
         id="path3277"
         inkscape:connector-curvature="0" />
      <path
         style="fill:url(#linearGradient3315);fill-opacity:1;stroke:none"
         d="m 426.59272,430.69811 c -20.88832,0 -37.775,13.00313 -37.77496,28.96234 0,15.95924 16.8866,28.86103 37.77496,28.86106 20.88831,0 37.89966,-12.90182 37.89962,-28.86106 0,-15.95924 -17.01135,-28.96237 -37.89962,-28.96234 z m 0,11.44316 c 12.62851,0 22.93924,7.87063 22.93924,17.51918 0,9.64858 -10.31069,17.4179 -22.93924,17.4179 -12.6286,-3e-5 -22.81458,-7.76935 -22.81458,-17.4179 4e-5,-9.64852 10.18602,-17.51918 22.81458,-17.51918 z"
         id="path2495"
         inkscape:connector-curvature="0" />
      <path
         style="fill:url(#radialGradient3312);fill-opacity:1;stroke:none"
         d="m 426.59272,430.69811 c -20.88832,0 -37.775,13.00313 -37.77496,28.96234 0,15.95924 16.8866,28.86103 37.77496,28.86106 20.88831,0 37.89966,-12.90182 37.89962,-28.86106 0,-15.95924 -17.01135,-28.96237 -37.89962,-28.96234 z m 0,11.44316 c 12.62851,0 22.93924,7.87063 22.93924,17.51918 0,9.64858 -10.31069,17.4179 -22.93924,17.4179 -12.6286,-3e-5 -22.81458,-7.76935 -22.81458,-17.4179 4e-5,-9.64852 10.18602,-17.51918 22.81458,-17.51918 z"
         id="path2493"
         inkscape:connector-curvature="0" />
      <path
         sodipodi:type="arc"
         style="fill:url(#linearGradient4189);fill-opacity:1;stroke:none"
         id="path3372"
         sodipodi:cx="431.00513"
         sodipodi:cy="487.9556"
         sodipodi:rx="14.89038"
         sodipodi:ry="5.9153566"
         d="m 445.89551,487.9556 c 0,3.26696 -6.66665,5.91535 -14.89038,5.91535 -8.22373,0 -14.89038,-2.64839 -14.89038,-5.91535 0,-3.26696 6.66665,-5.91536 14.89038,-5.91536 8.22373,0 14.89038,2.6484 14.89038,5.91536 z"
         transform="matrix(1.6027398,0,0,1,-262.23164,-1.6318225)" />
      <path
         inkscape:connector-curvature="0"
         style="font-size:40px;font-style:normal;font-variant:normal;font-weight:bold;font-stretch:normal;text-align:start;line-height:125%;writing-mode:lr-tb;text-anchor:start;fill:#000000;fill-opacity:1;stroke:none;font-family:Liberation Sans;-inkscape-font-specification:Liberation Sans Bold"
         d="m 462.12048,589.25808 -1.40007,-5.04813 6.56847,-1.82173 -6.43767,-23.21178 -4.94796,6.86075 -1.48046,-5.33798 5.10969,-7.37382 5.00633,-1.38848 8.03871,28.98453 6.07912,-1.68602 1.40007,5.04814 -17.93623,4.97452 m 34.16105,-27.81263 c 0.90211,3.25273 1.43143,6.06259 1.58797,8.42957 0.15204,2.35092 0.006,4.33362 -0.43799,5.94809 -0.43597,1.59492 -1.13372,2.85491 -2.09325,3.77999 -0.95148,0.90551 -2.09221,1.54269 -3.4222,1.91156 -1.33002,0.36887 -2.63599,0.41027 -3.91792,0.12419 -1.28194,-0.28608 -2.51422,-1.00212 -3.69685,-2.14812 -1.1871,-1.1621 -2.31464,-2.79158 -3.38264,-4.88846 -1.07247,-2.11296 -2.06199,-4.80385 -2.96858,-8.07268 -0.95124,-3.42981 -1.51768,-6.32476 -1.6993,-8.68482 -0.17353,-2.37961 -0.0378,-4.35077 0.40705,-5.9135 0.4449,-1.56266 1.15828,-2.7663 2.14014,-3.61092 0.98996,-0.86412 2.17503,-1.48759 3.55522,-1.87041 1.29237,-0.3584 2.56654,-0.41699 3.82254,-0.17577 1.26407,0.22171 2.48296,0.88945 3.65666,2.0032 1.18623,1.11035 2.31782,2.73004 3.39476,4.85909 1.085,2.10952 2.10313,4.87919 3.05439,8.30899 m -5.30747,1.472 c -0.66543,-2.39925 -1.28375,-4.36072 -1.85496,-5.88441 -0.57569,-1.53974 -1.14137,-2.72678 -1.69706,-3.56113 -0.56017,-0.85041 -1.13627,-1.39294 -1.72832,-1.62761 -0.57952,-0.23809 -1.21433,-0.26146 -1.90441,-0.0701 -0.74029,0.20534 -1.30779,0.57083 -1.70249,1.09646 -0.39918,0.50958 -0.62608,1.27482 -0.68074,2.29574 -0.0421,1.01749 0.0867,2.33438 0.3863,3.95068 0.30773,1.59677 0.78984,3.57867 1.44634,5.94572 0.64755,2.33488 1.25695,4.26414 1.82816,5.7878 0.57121,1.52367 1.13913,2.71876 1.70377,3.58529 0.56015,0.85044 1.13848,1.40102 1.73501,1.65176 0.59652,0.25075 1.25238,0.27694 1.96757,0.0786 0.6901,-0.1914 1.22622,-0.54818 1.60839,-1.07036 0.38214,-0.52218 0.60056,-1.29373 0.65522,-2.31468 0.0502,-1.03704 -0.0723,-2.35567 -0.36748,-3.95591 -0.28265,-1.60368 -0.74774,-3.57297 -1.3953,-5.90785 m 27.32654,10.75936 -8.72169,-10.3268 -1.71461,2.66051 2.71977,9.80643 -5.28865,1.46678 -9.94121,-35.8442 5.28865,-1.46678 5.69409,20.53072 4.26371,-12.83576 5.68389,-1.57639 -4.32496,12.17642 12.119,13.80658 -5.77799,1.60249 m 19.8837,5.77443 c -1.34256,0.37234 -2.5774,0.52406 -3.70451,0.45517 -1.11011,-0.0563 -2.11613,-0.29751 -3.01802,-0.72367 -0.88491,-0.41355 -1.66751,-0.99419 -2.34782,-1.74192 -0.66331,-0.73511 -1.21942,-1.59533 -1.66835,-2.58065 l 5.06758,-2.26386 c 0.47848,0.99447 1.10776,1.70434 1.88782,2.12961 0.79259,0.4218 1.69078,0.49351 2.69457,0.21511 0.62735,-0.17399 1.16698,-0.44505 1.6189,-0.81316 0.46446,-0.37159 0.80269,-0.88158 1.01473,-1.52999 0.22903,-0.63578 0.32111,-1.42432 0.27626,-2.36565 -0.0323,-0.94478 -0.22937,-2.06934 -0.59111,-3.37365 -0.12505,-0.45086 -0.25233,-0.90978 -0.38183,-1.37676 -0.12952,-0.46696 -0.2416,-0.89542 -0.33623,-1.28536 -0.1125,-0.45434 -0.22681,-0.89086 -0.34292,-1.30953 l -0.0376,0.0104 c -0.14589,1.86129 -0.67224,3.32519 -1.57903,4.39171 -0.89427,1.06306 -2.10677,1.80686 -3.63752,2.2314 -1.29237,0.35844 -2.49839,0.34609 -3.61807,-0.037 -1.11159,-0.4027 -2.13557,-1.09847 -3.07193,-2.08734 -0.94083,-1.00496 -1.7851,-2.27081 -2.53283,-3.79755 -0.73965,-1.54631 -1.37966,-3.29367 -1.92005,-5.24209 -0.55823,-2.01279 -0.90605,-3.87587 -1.04343,-5.58924 -0.14185,-1.72944 -0.0558,-3.27064 0.25807,-4.62362 0.32645,-1.35642 0.89192,-2.48435 1.69642,-3.38381 0.8126,-0.91898 1.89644,-1.56641 3.25153,-1.94226 1.3551,-0.3758 2.66862,-0.34125 3.94057,0.10364 1.28449,0.44148 2.45787,1.40796 3.52013,2.89945 l 0.0941,-0.0261 c -0.0938,-0.33812 -0.19471,-0.72632 -0.30273,-1.1646 -0.1,-0.4578 -0.19321,-0.89147 -0.27976,-1.30102 -0.091,-0.4256 -0.16865,-0.80292 -0.23287,-1.13196 -0.0517,-0.33245 -0.0806,-0.55855 -0.0868,-0.67825 l 5.00633,-1.38848 c 0.13567,0.58668 0.3361,1.40682 0.6013,2.4604 0.26519,1.05367 0.58535,2.25678 0.96051,3.60936 l 5.35244,19.29887 c 0.52696,1.9001 0.77142,3.60976 0.73337,5.12899 -0.0336,1.53534 -0.33497,2.88481 -0.90404,4.04844 -0.55656,1.16014 -1.37234,2.14072 -2.44734,2.94178 -1.06249,0.79755 -2.3591,1.4086 -3.88985,1.83316 m -2.20905,-25.1389 c -0.45553,-1.64244 -0.96061,-2.97635 -1.51523,-4.00175 -0.55463,-1.02534 -1.12425,-1.81245 -1.70886,-2.36132 -0.58463,-0.54882 -1.17839,-0.88704 -1.78128,-1.01465 -0.59036,-0.13104 -1.14903,-0.1235 -1.67601,0.0226 -0.67755,0.18794 -1.23293,0.52406 -1.66612,1.00834 -0.42065,0.48085 -0.71466,1.12598 -0.88203,1.93538 -0.16736,0.80945 -0.19331,1.78775 -0.0778,2.9349 0.11548,1.14719 0.38311,2.47759 0.80292,3.9912 0.78153,2.81796 1.72235,4.84605 2.82248,6.08429 1.1001,1.23826 2.34652,1.66425 3.73928,1.27797 0.52697,-0.14614 1.01194,-0.41938 1.45494,-0.81971 0.45105,-0.41989 0.79205,-1.01735 1.02302,-1.79241 0.22648,-0.79113 0.31112,-1.77703 0.25392,-2.95772 -0.0572,-1.18066 -0.32028,-2.61637 -0.7892,-4.30715"
         id="path3412" />
      <path
         inkscape:connector-curvature="0"
         style="font-size:40px;font-style:normal;font-variant:normal;font-weight:bold;font-stretch:normal;text-align:start;line-height:125%;writing-mode:lr-tb;text-anchor:start;fill:#000000;fill-opacity:1;stroke:none;font-family:Liberation Sans;-inkscape-font-specification:Liberation Sans Bold"
         d="m 323.60385,561.82997 1.5213,-5.01294 6.52267,1.97947 6.99509,-23.04992 -7.85293,3.14383 1.60865,-5.30077 8.2643,-3.49048 4.97142,1.50871 -8.73476,28.78241 6.03673,1.83201 -1.52131,5.01293 -17.81116,-5.40525 m 43.74433,-5.19167 c -0.98026,3.23004 -2.03814,5.88642 -3.17364,7.96914 -1.1307,2.06676 -2.31586,3.66293 -3.55551,4.78852 -1.22238,1.1134 -2.48644,1.80375 -3.7922,2.07107 -1.28848,0.25511 -2.59307,0.18225 -3.91379,-0.21856 -1.32074,-0.40081 -2.44579,-1.06529 -3.37514,-1.99345 -0.92938,-0.92817 -1.58653,-2.19284 -1.97147,-3.794 -0.38011,-1.61716 -0.45959,-3.59712 -0.23848,-5.9399 0.22597,-2.35876 0.8315,-5.16115 1.81659,-8.40718 1.03361,-3.4059 2.10572,-6.15401 3.21633,-8.24433 1.12792,-2.10249 2.2982,-3.69444 3.51086,-4.77588 1.21264,-1.08137 2.45972,-1.71577 3.74125,-1.90317 1.2988,-0.19955 2.63349,-0.0914 4.00408,0.32454 1.28334,0.3895 2.39074,1.02243 3.32223,1.89882 0.94875,0.86424 1.62046,2.08094 2.01514,3.65009 0.40709,1.57299 0.49523,3.54685 0.26444,5.92159 -0.21354,2.36256 -0.8371,5.2468 -1.87069,8.6527 m -5.27046,-1.59945 c 0.72303,-2.38253 1.25137,-4.37013 1.58505,-5.96279 0.33847,-1.60862 0.49651,-2.91402 0.4741,-3.91624 -0.0176,-1.01817 -0.21354,-1.78487 -0.58784,-2.30014 -0.36189,-0.51144 -0.88546,-0.87116 -1.57072,-1.07914 -0.73514,-0.22307 -1.41013,-0.21836 -2.02496,0.0141 -0.61002,0.21654 -1.21149,0.74125 -1.80443,1.57414 -0.58049,0.83671 -1.17705,2.01777 -1.78965,3.54319 -0.59531,1.51326 -1.24963,3.44516 -1.96296,5.79571 -0.70365,2.3186 -1.22228,4.27421 -1.55593,5.86684 -0.33366,1.59266 -0.49411,2.90606 -0.48138,3.94024 0.0176,1.01818 0.21109,1.79288 0.58056,2.32412 0.36947,0.53123 0.9093,0.90461 1.61951,1.12014 0.68527,0.20797 1.32911,0.1938 1.93151,-0.0425 0.60238,-0.2363 1.20005,-0.7709 1.79301,-1.6038 0.59779,-0.8489 1.20056,-2.02807 1.80835,-3.53753 0.6202,-1.50567 1.28213,-3.4178 1.98578,-5.73639 m 17.3145,23.72153 -1.83459,-13.39197 -2.87287,1.32847 -2.95526,9.73805 -5.25177,-1.59378 10.802,-35.59426 5.25176,1.59378 -6.18712,20.38756 10.47515,-8.55611 5.64425,1.71289 -10.17375,7.96651 2.83991,18.15012 -5.73771,-1.74126 m 13.69893,15.52564 c -1.3332,-0.40461 -2.45726,-0.93783 -3.3722,-1.59966 -0.90733,-0.64208 -1.6277,-1.38459 -2.16111,-2.2275 -0.5258,-0.82317 -0.87573,-1.73266 -1.04977,-2.72847 -0.16645,-0.97604 -0.17536,-2.00032 -0.0268,-3.07285 l 5.49197,0.80227 c -0.12853,1.09607 0.0227,2.03257 0.45368,2.80949 0.44343,0.7807 1.16353,1.3223 2.16032,1.6248 0.62298,0.18906 1.22387,0.24917 1.80266,0.18034 0.59124,-0.065 1.15001,-0.31459 1.67635,-0.7486 0.53391,-0.41424 1.034,-1.03084 1.50027,-1.8498 0.4787,-0.81518 0.91459,-1.87038 1.30766,-3.16559 0.13586,-0.44772 0.27416,-0.90344 0.4149,-1.36716 0.14072,-0.46372 0.27554,-0.88556 0.40447,-1.26555 0.14833,-0.44394 0.28558,-0.8738 0.41176,-1.28954 l -0.0374,-0.0113 c -1.12006,1.4937 -2.34859,2.44804 -3.68556,2.86306 -1.32455,0.41879 -2.74685,0.39754 -4.26692,-0.0638 -1.28337,-0.38947 -2.29522,-1.04581 -3.03559,-1.969 -0.72306,-0.93542 -1.21516,-2.0714 -1.47629,-3.40798 -0.25629,-1.35256 -0.29131,-2.87373 -0.10508,-4.56351 0.20354,-1.70198 0.5989,-3.52038 1.18607,-5.4552 0.60658,-1.99877 1.31067,-3.75839 2.11229,-5.27889 0.80645,-1.53646 1.70453,-2.79192 2.69423,-3.76638 1.00214,-0.97064 2.08376,-1.62032 3.24489,-1.94902 1.17841,-0.34087 2.44045,-0.30713 3.7861,0.10121 1.34563,0.4084 2.43639,1.14106 3.27225,2.198 0.8483,1.06076 1.32158,2.50537 1.41985,4.33383 l 0.0935,0.0284 c 0.10187,-0.33576 0.22457,-0.71764 0.36808,-1.14562 0.16077,-0.44014 0.31428,-0.85632 0.46053,-1.24853 0.15107,-0.40816 0.2876,-0.76838 0.4096,-1.08064 0.13441,-0.30843 0.23107,-0.51486 0.28998,-0.61924 l 4.97143,1.5087 c -0.19964,0.56811 -0.46963,1.36805 -0.80994,2.39983 -0.34037,1.03183 -0.71435,2.21932 -1.12195,3.56248 l -5.81589,19.16429 c -0.57264,1.88684 -1.28184,3.46156 -2.12763,4.72415 -0.85069,1.27857 -1.82791,2.25679 -2.9317,2.93468 -1.09135,0.68164 -2.30543,1.07282 -3.64229,1.17357 -1.3244,0.10448 -2.74665,-0.0739 -4.26672,-0.53522 m 11.59822,-22.41262 c 0.49496,-1.63099 0.78284,-3.02797 0.86364,-4.19094 0.0808,-1.16295 0.0213,-2.13272 -0.17846,-2.90934 -0.19977,-0.77658 -0.52005,-1.38021 -0.96084,-1.81087 -0.42837,-0.42684 -0.9042,-0.71968 -1.42749,-0.87851 -0.67284,-0.20417 -1.32186,-0.21777 -1.94706,-0.0408 -0.61276,0.18078 -1.20656,0.56812 -1.7814,1.16202 -0.57486,0.59393 -1.12072,1.4062 -1.63758,2.4368 -0.51689,1.03063 -1.00341,2.29748 -1.45954,3.80054 -0.84923,2.79831 -1.1409,5.01488 -0.87503,6.64976 0.26584,1.63488 1.09028,2.66218 2.47333,3.08189 0.52329,0.15882 1.07919,0.18781 1.6677,0.087 0.60578,-0.11302 1.21375,-0.43493 1.82389,-0.96576 0.61497,-0.5468 1.21447,-1.33405 1.79852,-2.36176 0.584,-1.0277 1.13078,-2.38104 1.64032,-4.06002"
         id="path4165" />
    </g>
  </g>
</svg>
